PathFileType	4	(X/Y/Z)	 s06c0402.trc
DataRate	CameraRate	NumFrames	NumMarkers	Units	OrigDataRate	OrigDataStartFrame	OrigNumFrames
200	200	4	48	mm	200	1001	2000
Frame#	Time	racr			lacr			c7			jug			rlel			rdr			llel			ldr			s2			lic			ric			lasi			rasi			rpsi			lpsi			rgt			lgt			rth1			rth2			rth3			rth4			rlfc			rmfc			rsh1			rsh2			rsh3			rsh4			rlmal			rcal			rtoe			rmt5			lth1			lth2			lth4			lth3			llfc			lmfc			llmal			lcal			lmt5			lsh1			lsh2			lsh3			lsh4			ltoe			SBIKE			LBIKE			RBIKE			
		X1	Y1	Z1	X2	Y2	Z2	X3	Y3	Z3	X4	Y4	Z4	X5	Y5	Z5	X6	Y6	Z6	X7	Y7	Z7	X8	Y8	Z8	X9	Y9	Z9	X10	Y10	Z10	X11	Y11	Z11	X12	Y12	Z12	X13	Y13	Z13	X14	Y14	Z14	X15	Y15	Z15	X16	Y16	Z16	X17	Y17	Z17	X18	Y18	Z18	X19	Y19	Z19	X20	Y20	Z20	X21	Y21	Z21	X22	Y22	Z22	X23	Y23	Z23	X24	Y24	Z24	X25	Y25	Z25	X26	Y26	Z26	X27	Y27	Z27	X28	Y28	Z28	X29	Y29	Z29	X30	Y30	Z30	X31	Y31	Z31	X32	Y32	Z32	X33	Y33	Z33	X34	Y34	Z34	X35	Y35	Z35	X36	Y36	Z36	X37	Y37	Z37	X38	Y38	Z38	X39	Y39	Z39	X40	Y40	Z40	X41	Y41	Z41	X42	Y42	Z42	X43	Y43	Z43	X44	Y44	Z44	X45	Y45	Z45	X46	Y46	Z46	X47	Y47	Z47	X48	Y48	Z48	
1001	5.0050	710.524764	1314.186384	-37.593110	738.359369	1288.637328	-367.894554	731.074626	1408.222915	-197.098620	707.718676	1248.298889	-191.836554	560.289975	1100.260314	71.729789	689.932670	944.835660	-40.059184	559.466013	1104.583271	-493.106772	670.279671	937.721684	-400.986608	182.082237	1210.468178	-196.204926	331.087634	1186.862200	-369.436450	340.011580	1138.718661	-43.434634	348.034666	1136.286120	-331.680823	355.218107	1092.050076	-86.272023	221.876662	1237.541973	-158.715156	218.412881	1247.724858	-218.897357	269.750283	1050.397032	-24.240807	309.371190	1146.426647	-396.473823	292.076428	924.385225	-11.510351	312.722491	836.223669	-18.503465	287.251744	753.889473	-27.719482	348.499434	837.564238	-31.754732	277.170666	647.634887	-41.960337	261.652716	626.020289	-157.438008	234.290677	533.439531	-18.555530	223.246446	449.344517	-38.017940	172.688004	377.621899	-41.818514	243.814095	444.942446	-72.673110	133.683508	307.293431	-51.141248	79.192381	331.119804	-100.316389	233.806186	101.351343	-94.873889	156.601196	165.992778	-28.758594	368.421486	1051.035340	-414.189227	448.775702	1017.237985	-409.511415	469.338111	1043.092252	-390.485941	502.889964	945.591455	-411.200291	556.720199	843.730115	-381.474796	553.758143	831.876620	-260.529442	267.832336	600.865886	-371.072749	186.493059	606.547068	-324.757960	334.120622	478.285147	-400.023270	479.758226	767.867680	-398.887040	428.195805	700.080162	-381.337656	347.738456	662.511737	-380.383666	447.963495	681.844367	-352.891238	411.807958	439.268849	-342.496820	-157.058239	858.308766	-214.254234	-49.388308	84.589151	-414.433891	-49.136466	80.489233	-17.098391	
1002	5.0100	709.379111	1314.436084	-37.510348	740.380961	1286.943942	-366.348796	731.841177	1407.787800	-196.606606	706.757952	1248.153311	-191.124960	559.661695	1100.496175	71.881955	689.738639	944.801099	-39.839091	559.813893	1104.715846	-492.593733	670.161989	937.929544	-400.785733	181.125250	1213.046160	-197.187815	330.023128	1188.490642	-369.763271	339.166160	1141.293102	-43.502811	346.813767	1138.116555	-332.019908	354.687117	1094.870831	-86.485955	221.406609	1240.321304	-159.443709	218.029388	1250.466718	-219.457007	269.707117	1052.762814	-24.491263	308.308965	1149.107157	-396.089158	294.723640	925.856570	-12.376228	316.415474	837.857964	-21.204169	293.638595	755.488316	-28.730402	352.379024	840.300698	-34.195141	283.855479	648.670793	-43.222532	265.403201	628.285723	-158.167862	236.697315	535.770199	-19.088879	222.113621	452.203143	-38.798603	168.777414	382.635444	-41.556161	241.895845	447.243459	-73.794259	127.389863	313.082212	-50.272975	71.937945	338.278089	-97.802576	223.955274	106.262841	-95.858562	148.096673	171.352976	-28.812236	365.836541	1053.520303	-415.049000	445.951626	1019.071997	-410.295780	466.704173	1044.705290	-391.192298	499.559901	947.024221	-412.259395	553.437588	844.074712	-383.197277	551.647564	831.235651	-262.460515	270.912928	593.008835	-370.820951	189.213139	596.013665	-323.853944	341.355820	473.861107	-400.609953	477.425031	766.507853	-399.996276	428.078981	697.057142	-382.484564	348.637057	657.354216	-380.663926	448.635589	679.266970	-354.423216	420.926343	437.852294	-343.563989	-157.127602	858.365060	-214.192625	-49.408005	84.606076	-414.419584	-49.134808	80.488297	-17.096222	
1003	5.0150	708.036629	1314.675873	-37.406891	742.030684	1285.091769	-364.602901	732.636735	1407.303584	-195.948493	705.684453	1247.957356	-190.241711	558.882052	1100.696721	71.950941	689.461691	944.795024	-39.559353	560.166962	1104.846142	-491.978464	670.044956	938.021610	-400.446158	180.655213	1215.715357	-198.022202	328.972891	1189.995973	-370.100319	337.646425	1143.764786	-43.645593	345.655030	1139.802062	-332.898316	354.102156	1097.638292	-86.525356	220.791169	1242.886936	-160.310473	217.618557	1253.213037	-220.252807	269.546734	1055.101875	-24.797742	306.926548	1151.230351	-396.021696	297.719187	927.491140	-12.845088	321.766847	840.122083	-22.157120	300.273323	756.855029	-30.900729	357.022643	843.079137	-36.010948	290.508331	649.279166	-44.610162	270.135321	630.069396	-158.376647	239.312306	538.643445	-19.427826	220.636598	455.508671	-40.475964	165.965069	387.656813	-41.415640	240.655472	449.770381	-74.730976	121.902132	319.452819	-49.220928	66.116653	345.485524	-96.433242	214.278459	111.504630	-96.826986	139.927953	177.293258	-28.790155	363.023298	1055.022542	-415.424149	443.304305	1019.855631	-410.171109	464.088167	1045.378302	-391.761682	495.943351	947.635335	-413.680167	549.456691	843.295470	-383.976698	549.217534	830.060953	-264.424487	273.675985	584.700151	-370.732146	192.152985	584.975054	-322.840927	348.040628	468.417527	-401.061397	474.862175	763.922927	-401.530205	427.573286	693.012725	-383.693679	349.350657	651.252390	-381.053096	449.063065	675.784116	-355.957051	429.573672	435.807267	-344.998212	-157.139096	858.354600	-214.347301	-49.440624	84.612873	-414.407086	-49.173843	80.539928	-17.061521	
1004	5.0200	706.594985	1315.021278	-37.080355	743.821258	1283.293665	-362.795565	733.344474	1406.733265	-195.236325	704.455706	1247.660233	-189.320099	557.847435	1100.929868	72.078000	689.093648	944.892593	-39.156850	560.452641	1104.996700	-491.329860	669.851637	938.120185	-400.099327	180.175327	1218.346254	-198.933801	327.854986	1191.229005	-370.356326	336.966341	1146.267006	-43.621467	344.278673	1141.157230	-333.095561	353.406745	1100.532617	-86.593726	220.474511	1245.606164	-161.063281	217.280619	1255.628190	-221.216986	269.309460	1057.366487	-25.085403	305.164170	1152.608672	-396.018553	300.878140	928.831470	-13.941938	326.776641	842.285847	-23.925444	307.865285	758.728443	-31.529037	361.750269	846.054072	-37.902989	297.628788	650.178641	-46.204634	275.025000	632.037014	-158.255789	242.432784	541.929503	-19.669943	220.674343	459.488604	-40.721186	163.684033	393.841586	-40.762519	240.014720	453.173508	-75.298111	117.060120	326.333714	-48.070210	60.822136	353.417995	-95.061112	205.079442	117.154452	-97.255821	132.028917	183.628826	-28.622667	360.279723	1056.159380	-416.281727	440.193583	1020.151167	-411.351748	461.188428	1045.487869	-393.167954	491.833633	947.540814	-416.155051	544.863766	842.129296	-385.912894	546.810028	827.807497	-266.751750	276.514442	575.743766	-370.591060	195.147191	573.244838	-321.699996	354.536134	462.490957	-401.604553	471.932720	760.711252	-403.846142	426.813000	688.074422	-384.667804	349.920669	644.303881	-381.418443	448.813483	671.454890	-356.370886	437.677126	432.760087	-346.109210	-157.215671	858.432256	-214.319682	-49.458071	84.555008	-414.345576	-49.184016	80.532064	-17.097927	
